<svg width="200" height="200" viewBox="0 0 200 200" fill="none" xmlns="http://www.w3.org/2000/svg">
<path d="M132.1 41.7C141.5 49.7 148.8 58.7 149.7 68.6C150.6 78.4 145.2 89.2 144.9 99.8C144.6 110.4 149.4 120.9 147.6 129.3C145.9 137.7 137.5 144.1 128.5 149.1C119.4 154.1 109.7 157.8 98.7999 159.9C87.8999 162 75.6999 162.5 65.8999 157.9C56.1999 153.4 48.7999 143.6 38.5999 133.1C28.4999 122.6 15.5999 111.3 19.1999 102.1C22.8999 92.9 43.0999 85.9 53.9999 76.7C64.8999 67.4 66.4999 56.1 72.5999 46.2C78.6999 36.3 89.3999 27.8 100.4 27.2C111.4 26.5 122.8 33.6 132.1 41.7Z" fill="url(#paint0_linear)"/>
<defs>
<linearGradient id="paint0_linear" x1="146" y1="138.5" x2="14" y2="27" gradientUnits="userSpaceOnUse">
<stop stop-color="#058B72"/>
<stop offset="1" stop-color="#058B72" stop-opacity="0"/>
</linearGradient>
</defs>
</svg>
