<svg width="200" height="200" viewBox="0 0 200 200" fill="none" xmlns="http://www.w3.org/2000/svg">
<path d="M139.7 33.2C152.1 38.4 163.3 47.7 170 59.5C176.8 71.3 179.1 85.7 174.8 97.5C170.4 109.3 159.4 118.6 152.3 129.9C145.3 141.3 142.3 154.7 134.2 164.1C126.2 173.6 113.1 179.2 98.5999 181.7C83.9999 184.2 67.9999 183.6 54.7999 177.1C41.5999 170.7 31.0999 158.3 29.8999 144.4C28.7999 130.6 36.9999 115.3 42.8999 103.4C48.7999 91.5 52.3999 83.1 54.7999 71.5C57.2999 59.9 58.5999 45.2 65.8999 37.1C73.2999 28.9 86.5999 27.3 100.1 27.1C113.6 26.8 127.3 28 139.7 33.2Z" fill="url(#paint0_linear)"/>
<defs>
<linearGradient id="paint0_linear" x1="19" y1="175" x2="193" y2="34" gradientUnits="userSpaceOnUse">
<stop stop-color="#058B72"/>
<stop offset="1" stop-color="#058B72" stop-opacity="0.25"/>
</linearGradient>
</defs>
</svg>
